<svg width="33" height="39" viewBox="0 0 33 39" fill="none" xmlns="http://www.w3.org/2000/svg">
<rect width="19.5938" height="39" fill="black"/>
<rect x="19.5938" width="13.4062" height="39" fill="#3FEAA2"/>
<path fill-rule="evenodd" clip-rule="evenodd" d="M13.946 2.55566H13.5945C12.2039 2.55566 10.8992 2.82129 9.68042 3.35254C8.46167 3.88379 7.39136 4.61035 6.46948 5.53223C5.56323 6.43848 4.84448 7.50098 4.31323 8.71973C3.78198 9.93848 3.51636 11.2432 3.51636 12.6338C3.51636 14.0244 3.78198 15.3369 4.31323 16.5713C4.84448 17.79 5.56323 18.8604 6.46948 19.7822C7.39136 20.6885 8.46167 21.4072 9.68042 21.9385C10.8992 22.4697 12.2039 22.7354 13.5945 22.7354H13.946V16.0088H13.5945C13.1257 16.0088 12.6882 15.9229 12.282 15.751C11.8757 15.5791 11.5164 15.3447 11.2039 15.0479C10.907 14.7354 10.6726 14.376 10.5007 13.9697C10.3289 13.5479 10.2429 13.1025 10.2429 12.6338C10.2429 12.165 10.3289 11.7275 10.5007 11.3213C10.6726 10.915 10.907 10.5635 11.2039 10.2666C11.5164 9.9541 11.8757 9.71191 12.282 9.54004C12.6882 9.36816 13.1257 9.28223 13.5945 9.28223H13.946V2.55566ZM13.946 36.165V29.4385H5.39136V36.165H13.946Z" fill="#EAD93F"/>
<path fill-rule="evenodd" clip-rule="evenodd" d="M33 0H15.4688V2.92725H29.5078V9.65381H15.4688V16.3804H20.8125C22.2031 16.3804 23.5078 16.646 24.7266 17.1772C25.9609 17.6929 27.0312 18.4116 27.9375 19.3335C28.8594 20.2397 29.5781 21.3101 30.0938 22.5444C30.625 23.7632 30.8906 25.0679 30.8906 26.4585C30.8906 27.8491 30.625 29.1538 30.0938 30.3726C29.5781 31.5913 28.8594 32.6616 27.9375 33.5835C27.0312 34.4897 25.9609 35.2085 24.7266 35.7397C23.5078 36.271 22.2031 36.5366 20.8125 36.5366H15.4688V39H33V0ZM15.4688 29.8101H20.8125C21.2812 29.8101 21.7188 29.7241 22.125 29.5522C22.5312 29.3804 22.8828 29.146 23.1797 28.8491C23.4922 28.5366 23.7344 28.1772 23.9062 27.771C24.0781 27.3647 24.1641 26.9272 24.1641 26.4585C24.1641 25.9897 24.0781 25.5522 23.9062 25.146C23.7344 24.7397 23.4922 24.3882 23.1797 24.0913C22.8828 23.7788 22.5312 23.5366 22.125 23.3647C21.7188 23.1929 21.2812 23.1069 20.8125 23.1069H15.4688V29.8101Z" fill="#030303"/>
<rect x="17" y="2" width="1" height="34" fill="#EAD93F"/>
<rect x="15" y="2" width="1" height="34" fill="#3FEAA2"/>
</svg>
